<?xml version="1.0" encoding="UTF-8"?><svg id="Layer_2" xmlns="http://www.w3.org/2000/svg" viewBox="0 0 729.1 65.66"><defs><style>.cls-1{fill:#fff;}</style></defs><g id="Layer_1-2"><path class="cls-1" d="m19.01,0v8.06h-8.78v49.54h8.78v8.06H0V0h19.01Z"/><path class="cls-1" d="m710.09,65.66v-8.06h8.78V8.06h-8.78V0h19.01v65.66h-19.01Z"/><path class="cls-1" d="m61.31,7.13l19.22,51.41h-11.74l-3.89-11.45h-19.22l-4.03,11.45h-11.38L49.72,7.13h11.59Zm.65,31.54l-6.48-18.86h-.14l-6.7,18.86h13.32Z"/><path class="cls-1" d="m94.14,7.13v18.72h.14c1.25-1.92,2.94-3.32,5.08-4.21,2.14-.89,4.36-1.33,6.66-1.33,1.87,0,3.72.38,5.54,1.15,1.82.77,3.47,1.94,4.93,3.53,1.46,1.58,2.65,3.61,3.56,6.08.91,2.47,1.37,5.41,1.37,8.82s-.46,6.35-1.37,8.82c-.91,2.47-2.1,4.5-3.56,6.08-1.46,1.58-3.11,2.76-4.93,3.53-1.83.77-3.67,1.15-5.54,1.15-2.74,0-5.18-.43-7.34-1.3s-3.79-2.33-4.9-4.39h-.14v4.75h-9.72V7.13h10.22Zm16.56,28.3c-.34-1.44-.86-2.71-1.58-3.82-.72-1.1-1.62-1.98-2.7-2.63-1.08-.65-2.39-.97-3.92-.97s-2.79.32-3.89.97c-1.1.65-2.02,1.52-2.74,2.63-.72,1.11-1.25,2.38-1.58,3.82-.34,1.44-.5,2.95-.5,4.54s.17,3.02.5,4.46c.34,1.44.87,2.71,1.58,3.82.72,1.1,1.63,1.98,2.74,2.63,1.1.65,2.4.97,3.89.97s2.84-.32,3.92-.97c1.08-.65,1.98-1.52,2.7-2.63.72-1.1,1.25-2.38,1.58-3.82.34-1.44.5-2.93.5-4.46s-.17-3.1-.5-4.54Z"/><path class="cls-1" d="m128.13,31.86c.91-2.42,2.21-4.49,3.89-6.19,1.68-1.7,3.7-3.02,6.05-3.96,2.35-.94,4.99-1.4,7.92-1.4s5.58.47,7.96,1.4c2.38.94,4.4,2.26,6.08,3.96,1.68,1.7,2.97,3.77,3.89,6.19.91,2.42,1.37,5.12,1.37,8.1s-.46,5.66-1.37,8.06c-.91,2.4-2.21,4.45-3.89,6.16-1.68,1.7-3.71,3.01-6.08,3.92-2.38.91-5.03,1.37-7.96,1.37s-5.57-.46-7.92-1.37c-2.35-.91-4.37-2.22-6.05-3.92-1.68-1.7-2.98-3.75-3.89-6.16-.91-2.4-1.37-5.09-1.37-8.06s.46-5.68,1.37-8.1Zm9.29,12.46c.29,1.42.78,2.69,1.48,3.82.7,1.13,1.62,2.03,2.77,2.7,1.15.67,2.59,1.01,4.32,1.01s3.18-.33,4.36-1.01c1.18-.67,2.11-1.57,2.81-2.7.7-1.13,1.19-2.4,1.48-3.82.29-1.42.43-2.87.43-4.36s-.14-2.95-.43-4.39c-.29-1.44-.78-2.71-1.48-3.82-.7-1.1-1.63-2-2.81-2.7-1.18-.7-2.63-1.04-4.36-1.04s-3.17.35-4.32,1.04c-1.15.7-2.08,1.6-2.77,2.7-.7,1.1-1.19,2.38-1.48,3.82-.29,1.44-.43,2.9-.43,4.39s.14,2.94.43,4.36Z"/><path class="cls-1" d="m181.12,58.54l-12.74-37.22h10.73l7.85,25.42h.14l7.85-25.42h10.15l-12.6,37.22h-11.38Z"/><path class="cls-1" d="m220.29,49.61c1.54,1.49,3.74,2.23,6.62,2.23,2.06,0,3.84-.52,5.33-1.55,1.49-1.03,2.4-2.12,2.74-3.28h9c-1.44,4.46-3.65,7.66-6.62,9.58-2.98,1.92-6.58,2.88-10.8,2.88-2.93,0-5.57-.47-7.92-1.4-2.35-.94-4.34-2.27-5.97-4-1.63-1.73-2.89-3.79-3.78-6.19-.89-2.4-1.33-5.04-1.33-7.92s.46-5.38,1.37-7.78c.91-2.4,2.21-4.47,3.89-6.23,1.68-1.75,3.68-3.13,6.01-4.14,2.33-1.01,4.91-1.51,7.74-1.51,3.17,0,5.93.61,8.28,1.84,2.35,1.22,4.28,2.87,5.79,4.93,1.51,2.06,2.6,4.42,3.28,7.06.67,2.64.91,5.4.72,8.28h-26.86c.14,3.31.98,5.71,2.52,7.2Zm11.56-19.58c-1.22-1.34-3.08-2.02-5.58-2.02-1.63,0-2.99.28-4.07.83-1.08.55-1.94,1.24-2.59,2.05-.65.82-1.1,1.68-1.37,2.59-.26.91-.42,1.73-.47,2.45h16.63c-.48-2.59-1.33-4.56-2.56-5.9Z"/><path class="cls-1" d="m267.73,16.63V7.13h42.12v9.5h-15.41v41.9h-11.3V16.63h-15.41Z"/><path class="cls-1" d="m324.9,7.13v19.37h.22c1.29-2.16,2.95-3.73,4.97-4.72,2.02-.98,3.98-1.48,5.9-1.48,2.74,0,4.98.37,6.73,1.12,1.75.75,3.13,1.78,4.14,3.1,1.01,1.32,1.72,2.93,2.12,4.82.41,1.9.61,4,.61,6.3v22.9h-10.22v-21.02c0-3.07-.48-5.36-1.44-6.88-.96-1.51-2.66-2.27-5.11-2.27-2.78,0-4.8.83-6.05,2.48-1.25,1.66-1.87,4.38-1.87,8.17v19.51h-10.22V7.13h10.22Z"/><path class="cls-1" d="m368.32,49.61c1.54,1.49,3.74,2.23,6.62,2.23,2.06,0,3.84-.52,5.33-1.55,1.49-1.03,2.4-2.12,2.74-3.28h9c-1.44,4.46-3.65,7.66-6.62,9.58-2.98,1.92-6.58,2.88-10.8,2.88-2.93,0-5.57-.47-7.92-1.4-2.35-.94-4.35-2.27-5.98-4-1.63-1.73-2.89-3.79-3.78-6.19-.89-2.4-1.33-5.04-1.33-7.92s.46-5.38,1.37-7.78c.91-2.4,2.21-4.47,3.89-6.23,1.68-1.75,3.68-3.13,6.01-4.14,2.33-1.01,4.91-1.51,7.74-1.51,3.17,0,5.93.61,8.28,1.84,2.35,1.22,4.29,2.87,5.8,4.93,1.51,2.06,2.6,4.42,3.28,7.06.67,2.64.91,5.4.72,8.28h-26.86c.14,3.31.98,5.71,2.52,7.2Zm11.56-19.58c-1.22-1.34-3.08-2.02-5.58-2.02-1.63,0-2.99.28-4.07.83-1.08.55-1.95,1.24-2.59,2.05-.65.82-1.1,1.68-1.37,2.59-.26.91-.42,1.73-.47,2.45h16.63c-.48-2.59-1.33-4.56-2.56-5.9Z"/><path class="cls-1" d="m443.99,7.13c2.45,0,4.68.22,6.7.65,2.02.43,3.74,1.14,5.18,2.12,1.44.98,2.55,2.29,3.35,3.92.79,1.63,1.19,3.65,1.19,6.05,0,2.59-.59,4.75-1.76,6.48-1.18,1.73-2.92,3.14-5.22,4.25,3.17.91,5.53,2.51,7.09,4.79,1.56,2.28,2.34,5.03,2.34,8.24,0,2.59-.51,4.84-1.51,6.73-1.01,1.9-2.36,3.44-4.07,4.64-1.71,1.2-3.65,2.09-5.83,2.66-2.19.58-4.43.86-6.73.86h-24.91V7.13h24.19Zm-1.44,20.81c2.02,0,3.67-.48,4.97-1.44,1.29-.96,1.94-2.52,1.94-4.68,0-1.2-.22-2.18-.65-2.95s-1.01-1.37-1.73-1.8c-.72-.43-1.55-.73-2.48-.9-.94-.17-1.91-.25-2.92-.25h-10.58v12.02h11.45Zm.65,21.82c1.1,0,2.16-.11,3.17-.32s1.89-.58,2.66-1.08c.77-.5,1.38-1.19,1.84-2.05.46-.86.68-1.97.68-3.31,0-2.64-.74-4.52-2.23-5.65-1.49-1.13-3.46-1.69-5.9-1.69h-12.31v14.11h12.1Z"/><path class="cls-1" d="m468.97,32.76c.14-2.4.74-4.39,1.8-5.98s2.4-2.86,4.03-3.82c1.63-.96,3.47-1.64,5.51-2.05,2.04-.41,4.09-.61,6.16-.61,1.87,0,3.77.13,5.69.4s3.67.78,5.26,1.55c1.58.77,2.88,1.84,3.89,3.2s1.51,3.18,1.51,5.44v19.37c0,1.68.1,3.29.29,4.82s.53,2.69,1.01,3.46h-10.37c-.19-.58-.35-1.16-.47-1.76-.12-.6-.21-1.21-.25-1.84-1.63,1.68-3.55,2.86-5.76,3.53-2.21.67-4.46,1.01-6.77,1.01-1.78,0-3.43-.22-4.97-.65-1.54-.43-2.88-1.1-4.03-2.02-1.15-.91-2.05-2.06-2.7-3.46-.65-1.39-.97-3.05-.97-4.97,0-2.11.37-3.85,1.12-5.22s1.7-2.46,2.88-3.28c1.18-.82,2.52-1.43,4.03-1.84,1.51-.41,3.04-.73,4.57-.97,1.54-.24,3.05-.43,4.54-.58,1.49-.14,2.81-.36,3.96-.65,1.15-.29,2.06-.71,2.74-1.26.67-.55.98-1.36.94-2.41,0-1.1-.18-1.98-.54-2.63-.36-.65-.84-1.15-1.44-1.51s-1.29-.6-2.09-.72c-.79-.12-1.64-.18-2.55-.18-2.02,0-3.6.43-4.75,1.3-1.15.86-1.83,2.3-2.02,4.32h-10.22Zm23.62,7.56c-.43.38-.97.68-1.62.9-.65.22-1.35.4-2.09.54-.75.14-1.53.26-2.34.36-.82.1-1.63.22-2.45.36-.77.14-1.52.34-2.27.58-.74.24-1.39.57-1.94.97-.55.41-1,.92-1.33,1.55-.34.62-.5,1.42-.5,2.38s.17,1.68.5,2.3c.33.62.79,1.12,1.37,1.48.58.36,1.25.61,2.02.76.77.14,1.56.22,2.38.22,2.02,0,3.57-.34,4.68-1.01,1.1-.67,1.92-1.48,2.45-2.41.53-.94.85-1.88.97-2.84.12-.96.18-1.73.18-2.3v-3.82Z"/><path class="cls-1" d="m519.34,49.28c.46.79,1.04,1.44,1.76,1.94.72.5,1.55.88,2.48,1.12.94.24,1.91.36,2.92.36.72,0,1.47-.08,2.27-.25.79-.17,1.51-.43,2.16-.79.65-.36,1.19-.84,1.62-1.44.43-.6.65-1.36.65-2.27,0-1.54-1.02-2.69-3.06-3.46-2.04-.77-4.88-1.54-8.53-2.3-1.49-.33-2.94-.73-4.36-1.19-1.42-.46-2.68-1.06-3.78-1.8s-1.99-1.68-2.66-2.81c-.67-1.13-1.01-2.51-1.01-4.14,0-2.4.47-4.37,1.4-5.9.94-1.54,2.17-2.75,3.71-3.64,1.54-.89,3.26-1.51,5.18-1.87,1.92-.36,3.89-.54,5.9-.54s3.97.19,5.87.58c1.9.38,3.59,1.03,5.08,1.94,1.49.91,2.72,2.12,3.71,3.64s1.57,3.42,1.77,5.72h-9.72c-.14-1.97-.89-3.3-2.23-4-1.34-.7-2.93-1.04-4.75-1.04-.58,0-1.2.04-1.87.11-.67.07-1.29.23-1.84.47-.55.24-1.02.59-1.4,1.04-.38.46-.58,1.07-.58,1.84,0,.91.34,1.66,1.01,2.23s1.55,1.04,2.63,1.4c1.08.36,2.32.68,3.71.97s2.81.6,4.25.94c1.49.34,2.94.75,4.36,1.22,1.42.48,2.68,1.12,3.78,1.91,1.1.79,1.99,1.78,2.66,2.95.67,1.18,1.01,2.63,1.01,4.36,0,2.45-.49,4.5-1.48,6.16-.98,1.66-2.27,2.99-3.85,4-1.58,1.01-3.4,1.72-5.44,2.12-2.04.41-4.12.61-6.23.61s-4.27-.22-6.34-.65c-2.06-.43-3.9-1.15-5.51-2.16-1.61-1.01-2.93-2.34-3.96-4-1.03-1.66-1.6-3.73-1.69-6.23h9.72c0,1.11.23,2.05.69,2.84Z"/><path class="cls-1" d="m558,49.28c.46.79,1.04,1.44,1.76,1.94.72.5,1.55.88,2.48,1.12.94.24,1.91.36,2.92.36.72,0,1.48-.08,2.27-.25.79-.17,1.51-.43,2.16-.79.65-.36,1.19-.84,1.62-1.44.43-.6.65-1.36.65-2.27,0-1.54-1.02-2.69-3.06-3.46-2.04-.77-4.88-1.54-8.53-2.3-1.49-.33-2.94-.73-4.36-1.19-1.42-.46-2.68-1.06-3.78-1.8-1.11-.74-1.99-1.68-2.66-2.81-.67-1.13-1.01-2.51-1.01-4.14,0-2.4.47-4.37,1.4-5.9.94-1.54,2.17-2.75,3.71-3.64,1.54-.89,3.26-1.51,5.18-1.87,1.92-.36,3.89-.54,5.9-.54s3.97.19,5.87.58c1.9.38,3.59,1.03,5.08,1.94,1.49.91,2.72,2.12,3.71,3.64.98,1.51,1.57,3.42,1.76,5.72h-9.72c-.14-1.97-.89-3.3-2.23-4-1.35-.7-2.93-1.04-4.75-1.04-.58,0-1.2.04-1.87.11s-1.29.23-1.84.47c-.55.24-1.02.59-1.4,1.04-.38.46-.58,1.07-.58,1.84,0,.91.34,1.66,1.01,2.23s1.55,1.04,2.63,1.4c1.08.36,2.31.68,3.71.97s2.81.6,4.25.94c1.49.34,2.94.75,4.36,1.22,1.41.48,2.67,1.12,3.78,1.91,1.1.79,1.99,1.78,2.66,2.95.67,1.18,1.01,2.63,1.01,4.36,0,2.45-.49,4.5-1.48,6.16-.98,1.66-2.27,2.99-3.85,4-1.58,1.01-3.4,1.72-5.44,2.12-2.04.41-4.12.61-6.23.61s-4.27-.22-6.34-.65c-2.06-.43-3.9-1.15-5.51-2.16-1.61-1.01-2.93-2.34-3.96-4-1.03-1.66-1.6-3.73-1.69-6.23h9.72c0,1.11.23,2.05.68,2.84Z"/><path class="cls-1" d="m598.57,7.13v51.41h-10.22V7.13h10.22Z"/><path class="cls-1" d="m606.92,15.55V7.13h10.22v8.42h-10.22Zm10.22,5.76v37.22h-10.22V21.31h10.22Z"/><path class="cls-1" d="m634.93,21.31v5.18h.22c1.29-2.16,2.97-3.73,5.04-4.72,2.06-.98,4.18-1.48,6.34-1.48,2.74,0,4.98.37,6.73,1.12,1.75.75,3.13,1.78,4.14,3.1,1.01,1.32,1.71,2.93,2.12,4.82.41,1.9.61,4,.61,6.3v22.9h-10.22v-21.02c0-3.07-.48-5.36-1.44-6.88-.96-1.51-2.66-2.27-5.11-2.27-2.78,0-4.8.83-6.05,2.48-1.25,1.66-1.87,4.38-1.87,8.17v19.51h-10.22V21.31h9.72Z"/><path class="cls-1" d="m678.85,49.61c1.54,1.49,3.74,2.23,6.62,2.23,2.06,0,3.84-.52,5.33-1.55,1.49-1.03,2.4-2.12,2.74-3.28h9c-1.44,4.46-3.65,7.66-6.62,9.58-2.98,1.92-6.58,2.88-10.8,2.88-2.93,0-5.57-.47-7.92-1.4-2.35-.94-4.35-2.27-5.98-4-1.63-1.73-2.89-3.79-3.78-6.19-.89-2.4-1.33-5.04-1.33-7.92s.46-5.38,1.37-7.78c.91-2.4,2.21-4.47,3.89-6.23,1.68-1.75,3.68-3.13,6.01-4.14,2.33-1.01,4.91-1.51,7.74-1.51,3.17,0,5.93.61,8.28,1.84,2.35,1.22,4.29,2.87,5.8,4.93,1.51,2.06,2.6,4.42,3.28,7.06.67,2.64.91,5.4.72,8.28h-26.86c.14,3.31.98,5.71,2.52,7.2Zm11.55-19.58c-1.22-1.34-3.08-2.02-5.58-2.02-1.63,0-2.99.28-4.07.83-1.08.55-1.95,1.24-2.59,2.05-.65.82-1.11,1.68-1.37,2.59-.26.91-.42,1.73-.47,2.45h16.63c-.48-2.59-1.33-4.56-2.56-5.9Z"/></g></svg>